<?xml version="1.0" standalone="no"?>
<!DOCTYPE svg PUBLIC "-//W3C//DTD SVG 20010904//EN"
 "http://www.w3.org/TR/2001/REC-SVG-20010904/DTD/svg10.dtd">
<svg version="1.0" xmlns="http://www.w3.org/2000/svg"
 width="16.000000pt" height="16.000000pt" viewBox="0 0 16.000000 16.000000"
 preserveAspectRatio="xMidYMid meet">
<metadata>
Created by potrace 1.11, written by Peter Selinger 2001-2013
</metadata>
<g transform="translate(0.000000,16.000000) scale(0.002500,-0.002500)"
fill="#000000" stroke="none">
<path d="M352 5685 l0 -355 36 -1 c49 0 5555 0 5610 0 l43 1 -2 70 c-1 39 0
73 3 76 3 3 3 19 -1 37 -4 18 -4 50 -1 72 3 22 2 53 -2 70 -4 16 -4 33 0 37 5
5 6 28 3 51 -3 23 -4 60 -1 82 3 22 2 53 -2 70 -4 16 -4 33 0 37 4 4 5 30 4
57 l-4 51 -2842 0 -2843 0 -1 -355z"/>
<path d="M350 4960 c-4 -8 -8 -18 -8 -23 0 -9 -13 -85 -19 -112 -2 -11 -6 -31
-9 -45 -3 -14 -16 -81 -30 -150 -14 -69 -27 -136 -30 -150 -2 -14 -16 -83 -31
-155 -14 -71 -27 -139 -29 -150 -1 -11 -10 -54 -19 -95 -8 -41 -17 -84 -19
-95 -2 -11 -6 -33 -9 -50 -4 -16 -9 -43 -12 -60 -3 -16 -7 -41 -10 -55 -8 -33
-34 -166 -40 -202 -3 -15 -12 -61 -21 -101 -9 -39 -17 -81 -18 -92 -2 -11 -7
-38 -11 -60 -4 -22 -9 -47 -10 -55 -2 -8 -8 -35 -14 -60 -6 -27 -11 -188 -11
-407 l0 -363 33 -1 c17 0 70 0 117 0 47 1 92 1 100 1 8 0 34 0 58 0 34 1 42
-3 43 -17 0 -10 1 -489 1 -1065 l1 -1048 1773 0 c1412 0 1774 3 1775 13 1 6 2
487 3 1067 l1 1055 712 1 712 0 0 -1040 c0 -573 0 -1053 1 -1068 l0 -28 355 0
356 0 0 208 c0 114 0 216 0 227 -2 62 0 109 3 113 2 2 0 17 -4 33 -5 16 -5 31
0 34 4 3 4 21 0 42 -5 21 -5 44 0 54 5 9 7 19 4 22 -3 3 -5 34 -4 69 2 80 1
51 0 282 -1 109 1 200 3 203 3 2 2 18 -2 36 -4 18 -4 50 -1 72 3 22 2 53 -2
70 -4 16 -4 33 0 37 5 5 6 28 3 51 -3 23 -4 60 -1 82 3 22 2 53 -2 70 -4 16
-4 33 0 37 5 5 6 27 3 50 -3 23 -5 110 -3 193 l3 152 177 -1 177 0 3 344 c2
234 -1 368 -9 415 -14 84 -15 93 -23 125 -3 14 -8 36 -10 50 -3 14 -10 50 -16
80 -6 30 -13 66 -15 80 -2 14 -7 35 -10 48 -11 48 -16 68 -21 102 -3 19 -7 44
-9 55 -14 66 -36 174 -40 195 -5 26 -11 58 -20 100 -2 14 -7 41 -11 60 -7 43
-12 64 -14 68 -2 1 -3 10 -4 20 -1 9 -7 42 -14 72 -6 30 -14 66 -16 80 -3 14
-12 59 -20 100 -8 41 -17 86 -20 100 -6 31 -43 214 -51 255 -3 17 -7 39 -9 50
-2 11 -7 36 -10 55 l-7 35 -2846 0 c-2522 0 -2846 -2 -2853 -15z m2847 -2510
c1 -19 2 -39 3 -45 1 -5 2 -13 1 -17 -1 -9 -1 -110 0 -128 1 -8 1 -33 0 -55
-1 -22 -1 -47 0 -55 0 -8 0 -42 0 -75 -1 -33 -1 -104 0 -158 0 -54 -1 -100 -3
-102 -2 -2 -1 -31 2 -63 3 -32 3 -69 0 -81 -3 -12 -3 -56 0 -97 3 -42 2 -78
-3 -81 -4 -2 -5 -8 -2 -12 5 -10 7 -98 3 -224 -2 -48 -1 -87 2 -87 3 0 3 -24
2 -53 l-4 -54 -1066 1 -1067 1 -1 705 c0 388 4 708 8 711 4 3 484 5 1065 5
l1058 -1 2 -35z"/>
</g>
</svg>
